<svg xmlns="http://www.w3.org/2000/svg" width="156" height="74" fill="none"><path fill="#FF7502" d="M11.19 22.18v3.372H3.964v4.486h6.925v3.372H3.964v5.48h7.226v3.373H.05V22.18h11.14ZM25.646 22.18v3.372H18.9v16.71h-3.914V22.18h10.659ZM27.137 41.54v-4.576c1.446 1.465 3.212 2.197 5.3 2.197 1.565 0 2.95-.461 4.155-1.385 1.224-.923 1.977-2.228 2.258-3.914h-9.003V30.49h8.943c-.281-1.646-1.014-2.92-2.198-3.824-1.184-.923-2.52-1.385-4.005-1.385-2.148 0-3.964.753-5.45 2.258v-4.577c1.606-.822 3.353-1.234 5.24-1.234 3.151 0 5.65.883 7.497 2.65.943.923 1.676 2.087 2.198 3.492.542 1.385.813 2.84.813 4.366 0 3.192-.994 5.751-2.981 7.678-1.867 1.867-4.366 2.8-7.497 2.8-1.887 0-3.644-.391-5.27-1.174Z"/><path fill="#A7BC0D" d="M67.278 36.964v4.576c-1.486.783-3.142 1.174-4.968 1.174-2.931 0-5.38-.933-7.347-2.8-2.148-2.067-3.222-4.627-3.222-7.678 0-3.252 1.074-5.871 3.222-7.858 1.887-1.767 4.346-2.65 7.377-2.65 1.766 0 3.412.412 4.938 1.234v4.577c-1.305-1.505-2.92-2.258-4.848-2.258-1.967 0-3.573.693-4.817 2.078-1.225 1.364-1.837 3.01-1.837 4.938 0 2.107.682 3.783 2.047 5.028 1.365 1.224 2.951 1.836 4.758 1.836 1.886 0 3.452-.732 4.697-2.197ZM81.716 25.552h-4.517v16.71h-3.914v-16.71H68.77V22.18h12.947v3.372ZM81.968 22.18h4.577l5.088 10.117L95.94 22.18h4.276l-9.304 20.083h-4.276l2.8-5.6-7.467-14.483ZM102.942 22.18h13.55v16.71h2.107v7.89h-3.613v-4.517h-12.345v4.516h-3.613V38.89c.682.02 1.305-.22 1.867-.722.562-.522 1.003-1.184 1.325-1.987.481-1.225.722-2.981.722-5.27V22.18Zm3.794 3.372v5.36c0 2.509-.231 4.375-.692 5.6a6.657 6.657 0 0 1-1.566 2.379h8.099V25.55h-5.841ZM121.186 22.18h3.915v13.489l11.08-13.941h2.71v20.535h-3.915v-13.55l-11.08 13.941h-2.71V22.18ZM156 22.18v20.083h-3.914v-7.768h-.723l-5.119 7.768h-4.697l5.962-8.13a4.933 4.933 0 0 1-2.198-.903c-1.505-1.084-2.258-2.7-2.258-4.848 0-1.947.662-3.503 1.987-4.667 1.164-1.023 2.881-1.535 5.149-1.535H156Zm-3.914 3.191h-1.205c-.321 0-.632.02-.933.06-.301.04-.703.151-1.204.332-.502.16-.904.471-1.205.933-.301.442-.451 1.004-.451 1.686 0 2.028 1.284 3.041 3.854 3.041h1.144v-6.052ZM44.855 30.491h4.917v3.371h-4.917z"/><path fill="url(#paint0_linear_1598_193)" fill-rule="evenodd" d="M149.617 9.515H.03V6.181h149.587l-3.823-3.823L148.152 0 156 7.848l-7.848 7.848-2.358-2.358 3.823-3.823Z" clip-rule="evenodd"/><path fill="url(#paint1_linear_1598_193)" d="M0 62.852a7.962 7.962 0 0 1 7.962-7.962H156v11.03a7.963 7.963 0 0 1-7.963 7.962H7.962A7.963 7.963 0 0 1 0 65.919v-3.067Z"/><path fill="#fff" d="M11.558 69.002c-.857 0-1.59-.186-2.202-.56a3.737 3.737 0 0 1-1.41-1.57c-.325-.67-.488-1.448-.488-2.333 0-.884.163-1.662.488-2.332.33-.67.8-1.192 1.41-1.565.611-.377 1.345-.566 2.202-.566.988 0 1.81.248 2.47.744.658.492 1.12 1.157 1.386 1.994l-1.446.398c-.167-.559-.45-.995-.851-1.309-.4-.317-.92-.476-1.559-.476-.575 0-1.055.13-1.44.387-.38.258-.668.62-.863 1.089-.19.464-.287 1.01-.291 1.636 0 .627.095 1.174.285 1.643.195.464.484.825.869 1.082.385.258.865.387 1.44.387.639 0 1.158-.158 1.559-.476.4-.317.684-.753.85-1.309l1.447.399c-.266.837-.728 1.503-1.387 2-.658.491-1.481.737-2.469.737ZM16.244 70.252v-2.553c.35 0 .597-.12.744-.357.147-.238.264-.65.351-1.238.056-.349.101-.718.137-1.107.036-.388.066-.799.09-1.231.027-.433.05-.889.07-1.369h4.785V67.7h.648v2.553h-1.356v-1.428h-4.118v1.428h-1.35Zm1.922-2.553h2.827v-4.177h-2.1a55.652 55.652 0 0 1-.096 1.47c-.02.245-.042.481-.065.708-.02.222-.044.428-.072.618a5.471 5.471 0 0 1-.16.822c-.064.214-.175.4-.334.559ZM26.06 69.002c-.464 0-.857-.087-1.178-.262a1.851 1.851 0 0 1-.732-.708 1.967 1.967 0 0 1-.244-.97c0-.31.052-.587.155-.833.103-.25.261-.464.476-.642.214-.183.492-.332.833-.447.258-.083.56-.158.904-.226.35-.067.726-.129 1.13-.184.41-.06.836-.123 1.28-.19l-.512.29c.004-.444-.095-.77-.297-.981-.203-.21-.544-.315-1.024-.315-.29 0-.569.067-.839.202s-.458.367-.565.696l-1.309-.41c.159-.544.46-.98.904-1.31.449-.329 1.052-.493 1.81-.493.57 0 1.072.093 1.505.28.436.186.76.491.97.916.115.226.184.458.208.696.024.234.036.49.036.767v3.945h-1.256v-1.392l.208.226c-.29.464-.628.806-1.017 1.024-.385.214-.867.321-1.446.321Zm.286-1.142c.325 0 .603-.058.833-.173.23-.115.412-.256.547-.422.139-.167.232-.324.28-.47.075-.183.117-.391.125-.625.012-.238.018-.43.018-.578l.44.131c-.432.068-.803.127-1.113.179-.31.052-.575.101-.797.149a5.104 5.104 0 0 0-.59.148c-.166.06-.307.13-.422.209a.922.922 0 0 0-.268.273.714.714 0 0 0-.089.363c0 .159.04.3.12.423.079.119.194.214.344.285.155.072.345.108.572.108ZM34.09 61.671c-.33 0-.632-.081-.905-.244a1.865 1.865 0 0 1-.655-.648 1.75 1.75 0 0 1-.244-.91h1.119c0 .19.065.352.196.487.135.131.298.197.488.197s.351-.066.482-.197a.665.665 0 0 0 .202-.488h1.12c0 .333-.082.637-.245.91-.163.27-.38.486-.654.65a1.738 1.738 0 0 1-.905.243Zm2.6.726v6.426h-1.375V64.63l-3.059 4.194h-1.148v-6.426h1.375v4.088l3.07-4.088h1.137ZM40.743 68.823v-8.568h5.534V61.6h-4.1v2.112h3.386v1.345h-3.386v2.422h4.1v1.344h-5.534ZM47.704 68.823v-8.568h5.534V61.6h-4.1v7.223h-1.434ZM57.551 69.002c-.638 0-1.21-.1-1.713-.297a3.304 3.304 0 0 1-1.28-.905c-.349-.405-.61-.906-.785-1.505l1.404-.352c.159.508.438.92.84 1.238.4.318.882.474 1.445.47a3 3 0 0 0 1.113-.232 1.99 1.99 0 0 0 .863-.678c.178-.226.309-.468.392-.726.084-.262.141-.532.173-.81h-3.035v-1.344h3.047a3.35 3.35 0 0 0-.417-1.273 2.266 2.266 0 0 0-.862-.857c-.358-.207-.782-.306-1.274-.298-.587.004-1.083.167-1.488.488-.404.321-.68.756-.827 1.303l-1.434-.202c.215-.936.655-1.66 1.321-2.172.667-.516 1.506-.774 2.517-.774.83 0 1.541.189 2.136.566a3.66 3.66 0 0 1 1.381 1.565c.325.67.49 1.448.494 2.332.004.833-.153 1.587-.47 2.261a3.835 3.835 0 0 1-1.38 1.607c-.6.397-1.32.595-2.16.595ZM65.125 68.823v-6.426h1.434v2.535h2.886v-2.535h1.434v6.426h-1.434v-2.546H66.56v2.546h-1.434ZM74.337 69.002c-.464 0-.856-.087-1.178-.262a1.851 1.851 0 0 1-.732-.708 1.967 1.967 0 0 1-.244-.97c0-.31.052-.587.155-.833.103-.25.262-.464.476-.642.214-.183.492-.332.833-.447.258-.083.56-.158.905-.226.349-.067.725-.129 1.13-.184l1.28-.19-.512.29c.004-.444-.095-.77-.298-.981-.202-.21-.543-.315-1.023-.315-.29 0-.57.067-.84.202-.269.135-.457.367-.564.696l-1.31-.41c.16-.544.46-.98.905-1.31.448-.329 1.051-.493 1.809-.493.571 0 1.073.093 1.505.28.437.186.76.491.97.916.115.226.185.458.208.696.024.234.036.49.036.767v3.945h-1.255v-1.392l.208.226c-.29.464-.629.806-1.018 1.024-.385.214-.867.321-1.446.321Zm.286-1.142c.325 0 .603-.058.833-.173.23-.115.413-.256.547-.422.14-.167.233-.324.28-.47.076-.183.117-.391.125-.625.012-.238.018-.43.018-.578l.44.131c-.432.068-.803.127-1.112.179-.31.052-.576.101-.798.149a5.104 5.104 0 0 0-.589.148c-.166.06-.307.13-.422.209a.922.922 0 0 0-.268.273.714.714 0 0 0-.09.363c0 .159.04.3.12.423.079.119.194.214.345.285.154.072.345.108.571.108ZM83.267 68.823V61.82l-1.606.982v-1.583l1.606-.964h1.464v8.568h-1.464ZM90.08 69.002c-.607 0-1.142-.129-1.606-.387a2.817 2.817 0 0 1-1.09-1.089c-.257-.464-.386-1-.386-1.606v-2.761c0-.607.129-1.143.387-1.607a2.775 2.775 0 0 1 1.089-1.083c.464-.262 1-.393 1.606-.393.607 0 1.14.131 1.601.393.464.258.827.619 1.089 1.083.262.464.393 1 .393 1.607v2.76c0 .608-.131 1.143-.393 1.607a2.817 2.817 0 0 1-1.089 1.09c-.46.257-.994.386-1.6.386Zm0-1.363c.302 0 .576-.071.822-.214.245-.147.44-.341.583-.583.142-.246.214-.52.214-.821v-2.97c0-.305-.072-.579-.214-.82a1.581 1.581 0 0 0-.584-.584 1.573 1.573 0 0 0-.82-.22c-.302 0-.576.074-.822.22-.246.143-.44.337-.583.584a1.585 1.585 0 0 0-.214.82v2.97c0 .301.071.575.214.821.143.242.337.436.583.583.246.143.52.214.821.214ZM97.913 69.002c-.606 0-1.142-.129-1.606-.387a2.817 2.817 0 0 1-1.09-1.089c-.257-.464-.386-1-.386-1.606v-2.761c0-.607.13-1.143.387-1.607a2.775 2.775 0 0 1 1.089-1.083c.464-.262 1-.393 1.606-.393.607 0 1.141.131 1.601.393.464.258.827.619 1.089 1.083.262.464.393 1 .393 1.607v2.76c0 .608-.131 1.143-.393 1.607a2.817 2.817 0 0 1-1.089 1.09c-.46.257-.994.386-1.6.386Zm0-1.363c.302 0 .576-.071.822-.214.246-.147.44-.341.583-.583.143-.246.214-.52.214-.821v-2.97c0-.305-.071-.579-.214-.82a1.581 1.581 0 0 0-.583-.584 1.572 1.572 0 0 0-.822-.22c-.301 0-.575.074-.82.22-.247.143-.441.337-.584.584a1.585 1.585 0 0 0-.214.82v2.97c0 .301.071.575.214.821.143.242.337.436.583.583.246.143.52.214.822.214ZM107.719 69.014c-.611-.008-1.131-.145-1.559-.41a2.717 2.717 0 0 1-1.006-1.125c-.242-.484-.389-1.055-.44-1.714a9.574 9.574 0 0 1-.006-1.13c.019-.417.063-.824.131-1.22.067-.397.16-.734.279-1.012.123-.278.284-.533.482-.768a3.213 3.213 0 0 1 1.494-1.017c.309-.1.632-.175.97-.226a25.4 25.4 0 0 1 1.041-.149c.357-.044.71-.1 1.059-.167l.131 1.268a5.8 5.8 0 0 1-.773.13c-.29.029-.592.06-.905.096a7.539 7.539 0 0 0-.887.155 2.396 2.396 0 0 0-.731.297 1.682 1.682 0 0 0-.655.75 2.97 2.97 0 0 0-.268 1.03 2 2 0 0 1 .917-.768 2.93 2.93 0 0 1 1.118-.226c.572 0 1.061.135 1.47.404.413.27.728.637.946 1.101.222.46.333.974.333 1.541 0 .635-.133 1.19-.398 1.666a2.805 2.805 0 0 1-1.107 1.107c-.472.262-1.018.39-1.636.387Zm.071-1.345c.516 0 .904-.159 1.166-.476.266-.321.399-.748.399-1.28 0-.543-.137-.971-.411-1.284-.269-.314-.654-.47-1.154-.47-.508 0-.895.156-1.16.47-.266.313-.399.741-.399 1.285 0 .555.135.988.405 1.297.269.305.654.458 1.154.458ZM113.968 69.002c-.464 0-.857-.087-1.178-.262a1.856 1.856 0 0 1-.732-.708 1.964 1.964 0 0 1-.244-.97c0-.31.052-.587.155-.833.103-.25.262-.464.476-.642.214-.183.492-.332.833-.447.258-.083.559-.158.904-.226.349-.067.726-.129 1.131-.184.408-.06.835-.123 1.279-.19l-.512.29c.004-.444-.095-.77-.297-.981-.202-.21-.544-.315-1.024-.315-.289 0-.569.067-.839.202-.269.135-.458.367-.565.696l-1.309-.41c.159-.544.46-.98.905-1.31.448-.329 1.051-.493 1.808-.493.572 0 1.074.093 1.506.28.436.186.76.491.97.916.115.226.184.458.208.696.024.234.036.49.036.767v3.945h-1.256v-1.392l.209.226c-.29.464-.629.806-1.018 1.024-.385.214-.867.321-1.446.321Zm.286-1.142c.325 0 .603-.058.833-.173.23-.115.412-.256.547-.422.139-.167.232-.324.28-.47.075-.183.117-.391.125-.625.012-.238.018-.43.018-.578l.44.131c-.432.068-.803.127-1.113.179-.309.052-.575.101-.797.149a5.075 5.075 0 0 0-.589.148c-.167.06-.308.13-.423.209a.914.914 0 0 0-.267.273.709.709 0 0 0-.09.363c0 .159.04.3.119.423.08.119.195.214.345.285.155.072.346.108.572.108ZM118.433 68.823v-1.201c.234.043.414.04.541-.012a.55.55 0 0 0 .286-.31c.064-.15.119-.35.167-.6.063-.354.119-.76.166-1.22.052-.46.095-.953.131-1.476.04-.524.076-1.06.107-1.607h4.731v6.426h-1.428v-5.081h-2.041a92.575 92.575 0 0 1-.161 1.833 25.128 25.128 0 0 1-.22 1.672c-.091.464-.222.83-.393 1.1-.166.27-.4.443-.702.518-.301.08-.696.066-1.184-.041ZM125.639 68.823v-1.201c.234.043.414.04.541-.012a.554.554 0 0 0 .286-.31c.063-.15.119-.35.166-.6.064-.354.119-.76.167-1.22.051-.46.095-.953.131-1.476.039-.524.075-1.06.107-1.607h4.73v6.426h-1.428v-5.081h-2.041c-.019.258-.043.547-.071.869-.028.317-.058.638-.089.964-.032.325-.068.634-.107.928-.036.29-.074.537-.113.744-.092.464-.223.83-.393 1.1-.167.27-.401.443-.702.518-.302.08-.697.066-1.184-.041ZM136.277 69.002c-.642 0-1.203-.145-1.683-.434a2.986 2.986 0 0 1-1.119-1.196c-.262-.512-.393-1.1-.393-1.762 0-.674.135-1.265.405-1.773a2.977 2.977 0 0 1 1.124-1.19c.48-.286 1.036-.428 1.666-.428.647 0 1.21.144 1.69.434.48.29.853.69 1.119 1.202.266.508.399 1.093.399 1.755 0 .667-.135 1.256-.405 1.768a2.986 2.986 0 0 1-1.119 1.196c-.48.285-1.041.428-1.684.428Zm0-1.345c.572 0 .996-.19 1.274-.571.278-.38.416-.873.416-1.476 0-.623-.14-1.118-.422-1.487-.282-.373-.704-.56-1.268-.56-.384 0-.702.088-.952.262-.246.17-.428.41-.547.72-.119.306-.179.66-.179 1.065 0 .623.141 1.121.423 1.494.286.369.704.553 1.255.553ZM140.784 68.823v-6.426h2.922c.21 0 .406.012.589.036.182.024.339.053.47.09.309.09.583.269.821.535.238.261.357.624.357 1.089 0 .273-.044.5-.131.678a1.346 1.346 0 0 1-.768.678 1.432 1.432 0 0 1 .988.613c.151.21.226.506.226.887 0 .432-.105.797-.315 1.095-.206.293-.51.497-.911.612-.146.04-.315.07-.505.09a7.02 7.02 0 0 1-.583.023h-3.16Zm1.452-1.106h1.606a1.745 1.745 0 0 0 .542-.09.526.526 0 0 0 .309-.273.878.878 0 0 0 .101-.41c0-.195-.049-.35-.148-.465a.685.685 0 0 0-.345-.238.793.793 0 0 0-.262-.053 2.72 2.72 0 0 0-.226-.012h-1.577v1.54Zm0-2.666h1.19c.123 0 .242-.006.357-.018.119-.016.218-.041.297-.077a.514.514 0 0 0 .286-.262.876.876 0 0 0 .095-.41.853.853 0 0 0-.107-.43.508.508 0 0 0-.327-.26 1.058 1.058 0 0 0-.363-.066 12.402 12.402 0 0 0-.268-.006h-1.16v1.529ZM148.039 68.823V67.51h1.434v1.314h-1.434Zm0-2.142v-6.426h1.434v6.426h-1.434Z"/><defs><linearGradient id="paint0_linear_1598_193" x1="156" x2=".03" y1="7.848" y2="7.848" gradientUnits="userSpaceOnUse"><stop stop-color="#FF7502"/><stop offset="1" stop-color="#FF7502" stop-opacity="0"/></linearGradient><linearGradient id="paint1_linear_1598_193" x1="30.048" x2="38.63" y1="73.882" y2="34.453" gradientUnits="userSpaceOnUse"><stop stop-color="#FF5426"/><stop offset="1" stop-color="#FFA101"/></linearGradient></defs></svg>
