<svg fill="none" height="32" viewBox="0 0 32 32" width="32" xmlns="http://www.w3.org/2000/svg" xmlns:xlink="http://www.w3.org/1999/xlink"><linearGradient id="a" gradientUnits="userSpaceOnUse" x1="16" x2="16" y1="0" y2="31.7627"><stop offset="0" stop-color="#2aabee"/><stop offset="1" stop-color="#229ed9"/></linearGradient><clipPath id="b"><path d="m0 0h32v32h-32z"/></clipPath><clipPath id="c"><path d="m0 0h32v32h-32z"/></clipPath><g clip-path="url(#b)"><g clip-path="url(#c)"><path d="m16 32c8.8366 0 16-7.1634 16-16 0-8.83656-7.1634-16-16-16-8.83656 0-16 7.16344-16 16 0 8.8366 7.16344 16 16 16z" fill="url(#a)"/><path clip-rule="evenodd" d="m7.24334 15.8319c4.66436-2.0322 7.77456-3.3719 9.33086-4.0192 4.4433-1.84813 5.3666-2.16917 5.9684-2.17977.1324-.00234.4283.03047.62.18602.1619.13134.2064.30875.2277.43325.0214.1246.0479.4083.0268.6299-.2408 2.53-1.2827 8.6696-1.8127 11.5032-.2243 1.199-.6659 1.601-1.0935 1.6404-.9291.0855-1.6347-.6141-2.5346-1.204-1.4082-.9231-2.2038-1.4977-3.5707-2.3985-1.5797-1.041-.5556-1.6131.3447-2.5482.2356-.2447 4.3294-3.9684 4.4086-4.3062.01-.0422.0192-.1997-.0744-.2829-.0936-.0831-.2316-.0547-.3313-.0321-.1412.0321-2.3908 1.519-6.7489 4.4608-.6385.4385-1.2169.6521-1.7351.6409-.57129-.0123-1.6702-.323-2.48714-.5885-1.002-.3257-1.79837-.4979-1.72902-1.0511.03612-.2881.43288-.5828 1.1903-.884z" fill="#fff" fill-rule="evenodd"/></g></g></svg>