<svg width="32" height="32" viewBox="0 0 32 32" fill="none" xmlns="http://www.w3.org/2000/svg">
<path d="M31.3309 8.29702C30.9622 6.91934 29.8794 5.83669 28.5017 5.46791C26.0073 4.79883 15.9999 4.79883 15.9999 4.79883C15.9999 4.79883 5.99275 4.79883 3.49818 5.46791C2.12052 5.83669 1.03787 6.91934 0.669081 8.29702C2.00281e-07 10.7916 0 15.9993 0 15.9993C0 15.9993 2.00281e-07 21.2071 0.669081 23.7017C1.03787 25.0794 2.12052 26.162 3.49818 26.5308C5.99275 27.1999 15.9999 27.1999 15.9999 27.1999C15.9999 27.1999 26.0073 27.1999 28.5017 26.5308C29.8794 26.162 30.9622 25.0794 31.3309 23.7017C32 21.2071 32 15.9993 32 15.9993C32 15.9993 31.9973 10.7916 31.3309 8.29702Z" fill="#FF0000"/>
<path d="M12.7969 20.8001L21.1103 16.0007L12.7969 11.2012V20.8001Z" fill="white"/>
</svg>
