<svg width="20" height="20" viewBox="0 0 20 20" xmlns="http://www.w3.org/2000/svg">
    <path d="M3.92921 3.93058C4.31974 3.54005 4.94948 3.54008 5.34001 3.93061L16.07 14.66C16.4605 15.0505 16.4605 15.6795 16.07 16.07C15.6794 16.4605 15.0506 16.4605 14.66 16.07L3.93001 5.34C3.53949 4.94948 3.53869 4.3211 3.92921 3.93058Z"/>
    <path d="M16.0691 3.92963C16.4597 4.32015 16.4597 4.94947 16.0691 5.34L5.33914 16.07C4.94861 16.4605 4.31967 16.4605 3.92914 16.07C3.53862 15.6794 3.53956 15.0505 3.93008 14.66L14.6591 3.9296C15.0497 3.53907 15.6786 3.5391 16.0691 3.92963Z"/>
</svg>
