<svg width="20" height="20" viewBox="0 0 20 20" xmlns="http://www.w3.org/2000/svg">
<path d="M2.93112 2.92879C3.32165 2.53826 3.95481 2.53826 4.34534 2.92879L17.0733 15.6567C17.4638 16.0472 17.4638 16.6804 17.0733 17.0709C16.6827 17.4614 16.0496 17.4614 15.659 17.0709L2.93112 4.343C2.5406 3.95248 2.5406 3.31931 2.93112 2.92879Z"/>
<path d="M17.0717 2.92864C17.4623 3.31916 17.4623 3.95232 17.0717 4.34285L4.34383 17.0708C3.9533 17.4613 3.32014 17.4613 2.92961 17.0708C2.53909 16.6802 2.53909 16.0471 2.92961 15.6566L15.6575 2.92864C16.0481 2.53811 16.6812 2.53811 17.0717 2.92864Z"/>
</svg>
