<svg width="24" height="24" viewBox="0 0 24 24" xmlns="http://www.w3.org/2000/svg">
<path fill-rule="evenodd" clip-rule="evenodd" d="M5 7C5 6.44772 5.44772 6 6 6H15C15.5523 6 16 6.44772 16 7C16 7.55228 15.5523 8 15 8H6C5.44772 8 5 7.55228 5 7Z"/>
<path fill-rule="evenodd" clip-rule="evenodd" d="M5 12C5 11.4477 5.44772 11 6 11H18C18.5523 11 19 11.4477 19 12C19 12.5523 18.5523 13 18 13H6C5.44772 13 5 12.5523 5 12Z"/>
<path fill-rule="evenodd" clip-rule="evenodd" d="M5 17C5 16.4477 5.44772 16 6 16H12C12.5523 16 13 16.4477 13 17C13 17.5523 12.5523 18 12 18H6C5.44772 18 5 17.5523 5 17Z"/>
</svg>
