<svg width="16" height="16" viewBox="0 0 16 16" xmlns="http://www.w3.org/2000/svg">
<path fill-rule="evenodd" clip-rule="evenodd" d="M8.24177 2.66634C7.11661 2.66634 6.03753 3.11331 5.24193 3.90892C4.44632 4.70453 3.99935 5.7836 3.99935 6.90877C3.99935 8.5499 5.07045 10.1601 6.2712 11.4275C6.85794 12.0469 7.44695 12.5543 7.89001 12.9071C8.02205 13.0123 8.14065 13.1033 8.24177 13.1791C8.3429 13.1033 8.4615 13.0123 8.59353 12.9071C9.0366 12.5543 9.62561 12.0469 10.2123 11.4275C11.4131 10.1601 12.4842 8.5499 12.4842 6.90877C12.4842 5.7836 12.0372 4.70453 11.2416 3.90892C10.446 3.11331 9.36693 2.66634 8.24177 2.66634ZM8.24177 13.9997C7.87197 14.5544 7.87181 14.5543 7.87162 14.5541L7.86991 14.553L7.86605 14.5504L7.85311 14.5417C7.8422 14.5342 7.82675 14.5237 7.80706 14.51C7.7677 14.4828 7.71138 14.4432 7.64051 14.392C7.49884 14.2897 7.29867 14.1407 7.05944 13.9502C6.58206 13.57 5.94379 13.0207 5.30326 12.3445C4.04946 11.0211 2.66602 9.08582 2.66602 6.90877C2.66602 5.42998 3.25346 4.01177 4.29912 2.96611C5.34477 1.92045 6.76299 1.33301 8.24177 1.33301C9.72056 1.33301 11.1388 1.92045 12.1844 2.96611C13.2301 4.01177 13.8175 5.42998 13.8175 6.90877C13.8175 9.08582 12.4341 11.0211 11.1803 12.3445C10.5398 13.0207 9.90149 13.57 9.4241 13.9502C9.18488 14.1407 8.9847 14.2897 8.84304 14.392C8.77217 14.4432 8.71584 14.4828 8.67648 14.51C8.6568 14.5237 8.64135 14.5342 8.63043 14.5417L8.61749 14.5504L8.61364 14.553L8.61238 14.5538C8.6122 14.554 8.61157 14.5544 8.24177 13.9997ZM8.24177 13.9997L8.61157 14.5544C8.38764 14.7037 8.09556 14.7034 7.87162 14.5541L8.24177 13.9997ZM8.24177 5.93907C7.70622 5.93907 7.27208 6.37322 7.27208 6.90877C7.27208 7.44431 7.70622 7.87846 8.24177 7.87846C8.77732 7.87846 9.21147 7.44431 9.21147 6.90877C9.21147 6.37322 8.77732 5.93907 8.24177 5.93907ZM5.93874 6.90877C5.93874 5.63684 6.96984 4.60574 8.24177 4.60574C9.5137 4.60574 10.5448 5.63684 10.5448 6.90877C10.5448 8.18069 9.5137 9.2118 8.24177 9.2118C6.96984 9.2118 5.93874 8.18069 5.93874 6.90877Z"/>
</svg>
