<svg width="41" height="40" viewBox="0 0 41 40" fill="none" xmlns="http://www.w3.org/2000/svg">
<path fill-rule="evenodd" clip-rule="evenodd" d="M11.9624 36.7817L7.52686 37.0129L15.5729 19.7336L15.4761 19.5337L15.7122 19.4344L17.1186 16.4141L20.0786 17.5983L22.8865 16.418L24.2721 19.2768L24.5833 19.4014L24.4604 19.6654L32.8052 36.8827L28.3659 36.7277L25.3944 39.9984L20.0894 29.0525L14.9919 39.9996L11.9624 36.7817Z" fill="#E4A444"/>
<path fill-rule="evenodd" clip-rule="evenodd" d="M34.4781 14.8611C34.4781 15.5827 33.154 16.1926 33.0447 16.883C32.9323 17.5923 33.9993 18.5762 33.7806 19.244C33.5575 19.9241 32.1083 20.0982 31.7851 20.7261C31.4582 21.3609 32.1646 22.6251 31.7446 23.1969C31.3224 23.7714 29.89 23.4938 29.3843 23.9948C28.8783 24.4961 29.1578 25.9149 28.5786 26.3331C28.001 26.7489 26.7254 26.0487 26.0849 26.3726C25.451 26.693 25.2754 28.1285 24.5885 28.3495C23.9148 28.5661 22.922 27.5087 22.2063 27.6204C21.5085 27.7287 20.8931 29.0405 20.1654 29.0405C19.4373 29.0405 18.8213 27.7287 18.1249 27.6204C17.4092 27.5087 16.4157 28.5661 15.7416 28.3488C15.0554 28.1285 14.8801 26.693 14.2462 26.3722C13.6058 26.0484 12.3298 26.7482 11.7526 26.3327C11.173 25.9142 11.4525 24.4954 10.9465 23.9941C10.4405 23.4932 9.00804 23.7707 8.58625 23.1962C8.16583 22.6244 8.87295 21.3603 8.54569 20.7258C8.22152 20.0982 6.77258 19.9238 6.55017 19.244C6.3312 18.5759 7.39857 17.5923 7.28616 16.883C7.17615 16.1923 5.85303 15.5824 5.85303 14.8611C5.85303 14.1405 7.17615 13.5302 7.28616 12.8392C7.39857 12.1305 6.33016 11.147 6.55017 10.4791C6.77224 9.79971 8.22084 9.62467 8.54534 8.99668C8.87157 8.36256 8.16515 7.09841 8.58488 6.52662C9.00735 5.9521 10.4401 6.22931 10.9458 5.72801C11.4518 5.22671 11.1717 3.80795 11.7519 3.38941C12.3291 2.97359 13.6051 3.67309 14.2455 3.34956C14.8791 3.0291 15.0551 1.59365 15.7412 1.37297C16.4153 1.1557 17.4085 2.21313 18.1249 2.1021C18.8213 1.99313 19.4373 0.681641 20.1654 0.681641C20.8935 0.681641 21.5092 1.99313 22.207 2.1021C22.9227 2.21313 23.9151 1.1557 24.5896 1.37331C25.2761 1.59399 25.4517 3.0291 26.0853 3.34956C26.726 3.67377 28.0024 2.97393 28.5792 3.39009C29.1592 3.80829 28.8793 5.22671 29.3854 5.72869C29.8907 6.22931 31.3235 5.9521 31.7453 6.52662C32.1657 7.09807 31.4589 8.36256 31.7858 8.99702C32.1093 9.62467 33.5579 9.79903 33.781 10.4788C33.9996 11.1466 32.9323 12.1305 33.0447 12.8392C33.154 13.5302 34.4781 14.1405 34.4781 14.8611Z" fill="#FFD046"/>
<path fill-rule="evenodd" clip-rule="evenodd" d="M24.0314 20.1421L20.2918 18.2407L16.5527 20.1421L17.2664 16.115L14.2417 13.2626L18.4223 12.6751L20.2918 9.01074L22.1618 12.6751L26.342 13.2626L23.3173 16.115L24.0314 20.1421Z" fill="white"/>
</svg>
