<svg width="41" height="40" viewBox="0 0 41 40" fill="none" xmlns="http://www.w3.org/2000/svg">
<path fill-rule="evenodd" clip-rule="evenodd" d="M12.2959 36.7817L7.86035 37.0129L15.9064 19.7336L15.8096 19.5337L16.0457 19.4344L17.4521 16.4141L20.4121 17.5983L23.22 16.418L24.6056 19.2768L24.9168 19.4014L24.7939 19.6654L33.1387 36.8827L28.6994 36.7277L25.7279 39.9984L20.4229 29.0525L15.3254 39.9996L12.2959 36.7817Z" fill="#EA6A00"/>
<path fill-rule="evenodd" clip-rule="evenodd" d="M34.8116 14.8611C34.8116 15.5827 33.4875 16.1926 33.3782 16.883C33.2657 17.5923 34.3328 18.5762 34.1141 19.244C33.891 19.9241 32.4418 20.0982 32.1186 20.7261C31.7917 21.3609 32.4981 22.6251 32.0781 23.1969C31.6559 23.7714 30.2235 23.4938 29.7178 23.9948C29.2118 24.4961 29.4913 25.9149 28.912 26.3331C28.3345 26.7489 27.0588 26.0487 26.4184 26.3726C25.7845 26.693 25.6089 28.1285 24.922 28.3495C24.2483 28.5661 23.2555 27.5087 22.5398 27.6204C21.842 27.7287 21.2266 29.0405 20.4989 29.0405C19.7708 29.0405 19.1548 27.7287 18.4584 27.6204C17.7427 27.5087 16.7492 28.5661 16.0751 28.3488C15.3889 28.1285 15.2136 26.693 14.5797 26.3722C13.9393 26.0484 12.6633 26.7482 12.0861 26.3327C11.5065 25.9142 11.786 24.4954 11.28 23.9941C10.774 23.4932 9.34154 23.7707 8.91975 23.1962C8.49933 22.6244 9.20644 21.3603 8.87918 20.7258C8.55502 20.0982 7.10608 19.9238 6.88367 19.244C6.66469 18.5759 7.73206 17.5923 7.61965 16.883C7.50965 16.1923 6.18652 15.5824 6.18652 14.8611C6.18652 14.1405 7.50965 13.5302 7.61965 12.8392C7.73206 12.1305 6.66366 11.147 6.88367 10.4791C7.10573 9.79971 8.55433 9.62467 8.87884 8.99668C9.20507 8.36256 8.49864 7.09841 8.91837 6.52662C9.34085 5.9521 10.7736 6.22931 11.2793 5.72801C11.7853 5.22671 11.5052 3.80795 12.0854 3.38941C12.6626 2.97359 13.9386 3.67309 14.579 3.34956C15.2126 3.0291 15.3886 1.59365 16.0747 1.37297C16.7488 1.1557 17.742 2.21313 18.4584 2.1021C19.1548 1.99313 19.7708 0.681641 20.4989 0.681641C21.227 0.681641 21.8427 1.99313 22.5405 2.1021C23.2562 2.21313 24.2486 1.1557 24.9231 1.37331C25.6096 1.59399 25.7852 3.0291 26.4188 3.34956C27.0595 3.67377 28.3359 2.97393 28.9127 3.39009C29.4927 3.80829 29.2128 5.22671 29.7188 5.72869C30.2242 6.22931 31.657 5.9521 32.0788 6.52662C32.4992 7.09807 31.7924 8.36256 32.1193 8.99702C32.4428 9.62467 33.8914 9.79903 34.1145 10.4788C34.3331 11.1466 33.2657 12.1305 33.3782 12.8392C33.4875 13.5302 34.8116 14.1405 34.8116 14.8611Z" fill="#FF7502"/>
<path fill-rule="evenodd" clip-rule="evenodd" d="M24.3649 20.1421L20.6253 18.2407L16.8862 20.1421L17.5999 16.115L14.5752 13.2626L18.7558 12.6751L20.6253 9.01074L22.4953 12.6751L26.6755 13.2626L23.6508 16.115L24.3649 20.1421Z" fill="white"/>
</svg>
