<svg width="41" height="40" viewBox="0 0 41 40" fill="none" xmlns="http://www.w3.org/2000/svg">
<path fill-rule="evenodd" clip-rule="evenodd" d="M12.6294 36.7817L8.19385 37.0129L16.2399 19.7336L16.1431 19.5337L16.3792 19.4344L17.7856 16.4141L20.7456 17.5983L23.5535 16.418L24.9391 19.2768L25.2503 19.4014L25.1274 19.6654L33.4722 36.8827L29.0329 36.7277L26.0614 39.9984L20.7564 29.0525L15.6589 39.9996L12.6294 36.7817Z" fill="#D0D998"/>
<path fill-rule="evenodd" clip-rule="evenodd" d="M35.1451 14.8611C35.1451 15.5827 33.821 16.1926 33.7117 16.883C33.5992 17.5923 34.6663 18.5762 34.4476 19.244C34.2245 19.9241 32.7753 20.0982 32.4521 20.7261C32.1252 21.3609 32.8316 22.6251 32.4116 23.1969C31.9894 23.7714 30.557 23.4938 30.0513 23.9948C29.5453 24.4961 29.8248 25.9149 29.2455 26.3331C28.668 26.7489 27.3923 26.0487 26.7519 26.3726C26.118 26.693 25.9424 28.1285 25.2555 28.3495C24.5818 28.5661 23.589 27.5087 22.8733 27.6204C22.1755 27.7287 21.5601 29.0405 20.8324 29.0405C20.1043 29.0405 19.4883 27.7287 18.7919 27.6204C18.0761 27.5087 17.0827 28.5661 16.4086 28.3488C15.7224 28.1285 15.5471 26.693 14.9132 26.3722C14.2728 26.0484 12.9968 26.7482 12.4196 26.3327C11.84 25.9142 12.1195 24.4954 11.6135 23.9941C11.1075 23.4932 9.67503 23.7707 9.25324 23.1962C8.83283 22.6244 9.53994 21.3603 9.21268 20.7258C8.88851 20.0982 7.43957 19.9238 7.21716 19.244C6.99819 18.5759 8.06556 17.5923 7.95315 16.883C7.84315 16.1923 6.52002 15.5824 6.52002 14.8611C6.52002 14.1405 7.84315 13.5302 7.95315 12.8392C8.06556 12.1305 6.99716 11.147 7.21716 10.4791C7.43923 9.79971 8.88783 9.62467 9.21234 8.99668C9.53856 8.36256 8.83214 7.09841 9.25187 6.52662C9.67435 5.9521 11.1071 6.22931 11.6128 5.72801C12.1188 5.22671 11.8386 3.80795 12.4189 3.38941C12.9961 2.97359 14.2721 3.67309 14.9125 3.34956C15.5461 3.0291 15.7221 1.59365 16.4082 1.37297C17.0823 1.1557 18.0755 2.21313 18.7919 2.1021C19.4883 1.99313 20.1043 0.681641 20.8324 0.681641C21.5605 0.681641 22.1762 1.99313 22.874 2.1021C23.5897 2.21313 24.5821 1.1557 25.2566 1.37331C25.9431 1.59399 26.1187 3.0291 26.7523 3.34956C27.393 3.67377 28.6694 2.97393 29.2462 3.39009C29.8262 3.80829 29.5463 5.22671 30.0523 5.72869C30.5577 6.22931 31.9905 5.9521 32.4122 6.52662C32.8327 7.09807 32.1259 8.36256 32.4528 8.99702C32.7763 9.62467 34.2249 9.79903 34.448 10.4788C34.6666 11.1466 33.5992 12.1305 33.7117 12.8392C33.821 13.5302 35.1451 14.1405 35.1451 14.8611Z" fill="#B2BE65"/>
<path fill-rule="evenodd" clip-rule="evenodd" d="M24.6984 20.1421L20.9588 18.2407L17.2197 20.1421L17.9334 16.115L14.9087 13.2626L19.0893 12.6751L20.9588 9.01074L22.8288 12.6751L27.009 13.2626L23.9843 16.115L24.6984 20.1421Z" fill="white"/>
</svg>
