<svg width="24" height="24" viewBox="0 0 24 24" xmlns="http://www.w3.org/2000/svg">
<path fill-rule="evenodd" clip-rule="evenodd" d="M12 2.5C12.1903 2.5 12.3641 2.60805 12.4484 2.77872L15.2404 8.43601L21.4836 9.3432C21.6719 9.37056 21.8284 9.50248 21.8872 9.68349C21.946 9.8645 21.897 10.0632 21.7607 10.196L17.2431 14.5996L18.3096 20.8176C18.3417 21.0052 18.2646 21.1948 18.1106 21.3066C17.9567 21.4185 17.7525 21.4332 17.5841 21.3447L12 18.409L6.41592 21.3447C6.24746 21.4332 6.04333 21.4185 5.88936 21.3066C5.73539 21.1948 5.65827 21.0052 5.69045 20.8176L6.75691 14.5996L2.2393 10.196C2.10301 10.0632 2.05396 9.8645 2.11277 9.68349C2.17159 9.50248 2.32806 9.37056 2.5164 9.3432L8.75959 8.43601L11.5516 2.77872C11.6359 2.60805 11.8097 2.5 12 2.5ZM12 4.12978L9.53999 9.11429C9.46716 9.26187 9.32638 9.36415 9.16352 9.38781L3.66278 10.1871L7.64316 14.067C7.761 14.1819 7.81477 14.3474 7.78696 14.5096L6.84732 19.9881L11.7673 17.4015C11.913 17.3249 12.087 17.3249 12.2327 17.4015L17.1527 19.9881L16.213 14.5096C16.1852 14.3474 16.239 14.1819 16.3568 14.067L20.3372 10.1871L14.8365 9.38781C14.6736 9.36415 14.5328 9.26187 14.46 9.11429L12 4.12978Z"/>
</svg>
